#!OML:ASF H:\Punching\Project 1\Capture day 1\Session 1\female.ASF
:FULLY-SPECIFIED
:DEGREES
1378
root -0.474789 15.3822 7.12905 10.8864 -4.84596 -1.43148
lowerback -0.370845 0.983653 6.83256
upperback -5.24439 1.45916 -0.719241
thorax -5.07247 0.403355 -4.63767
lowerneck -8.80947 4.44825 10.172
upperneck 28.4682 6.2326 -6.74157
head 11.188 3.16224 -3.44987
rclavicle -1.46662e-015 -5.96354e-015
rhumerus -19.7811 20.6535 -82.3415
rradius 125.097
rwrist -9.18042
rhand -32.4182 5.46541
rfingers 7.12502
rthumb -5.65253 -24.4392
lclavicle -1.46662e-015 -5.96354e-015
lhumerus -39.8247 4.82592 44.8749
lradius 122.003
lwrist -6.94543
lhand -40.0694 12.9717
lfingers 7.12502
lthumb -13.0347 42.5444
rfemur -10.3841 -0.0524186 22.1597
rtibia 30.3302
rfoot -26.0602 -14.961
rtoes -5.28966
lfemur -36.9637 4.79024 -9.25403
ltibia 56.298
lfoot -10.5615 6.14731
ltoes -12.79
1379
root -0.457294 15.3817 7.19124 10.8721 -5.26047 -1.43816
lowerback -0.33934 0.98223 6.92939
upperback -5.23774 1.46077 -0.737809
thorax -5.08192 0.398981 -4.71244
lowerneck -8.65583 4.54134 10.3001
upperneck 28.4647 6.39015 -6.86848
head 11.1817 3.23535 -3.50116
rclavicle 8.67761e-015 7.25564e-015
rhumerus -18.6177 21.5301 -82.6296
rradius 125.589
rwrist -8.60061
rhand -32.5916 6.07674
rfingers 7.12502
rthumb -5.81996 -23.8233
lclavicle 8.67761e-015 7.25564e-015
lhumerus -39.174 4.90464 45.1739
lradius 122.576
lwrist -7.56447
lhand -40.3032 12.9279
lfingers 7.12502
lthumb -13.26 42.4861
rfemur -10.0726 0.0319105 21.9758
rtibia 30.1315
rfoot -26.0891 -14.6442
rtoes -5.51893
lfemur -37.2812 4.68172 -9.0028
ltibia 54.4086
lfoot -10.6064 6.48426
ltoes -12.5541
1380
root -0.437022 15.3807 7.2553 10.8794 -5.70599 -1.47744
lowerback -0.320002 0.975405 7.05371
upperback -5.23957 1.45591 -0.739473
thorax -5.09445 0.390195 -4.78458
lowerneck -8.48561 4.64558 10.4324
upperneck 28.4538 6.56803 -7.00853
head 11.1727 3.317 -3.55568
rclavicle -7.66214e-016 1.90336e-014
rhumerus -17.5013 22.4097 -82.9054
rradius 126.015
rwrist -8.19073
rhand -32.7306 6.73538
rfingers 7.12502
rthumb -5.95411 -23.161
lclavicle -7.66214e-016 1.90336e-014
lhumerus -38.5818 4.96003 45.5548
lradius 123.086
lwrist -8.08661
lhand -40.4967 12.8874
lfingers 7.12502
lthumb -13.4466 42.4334
rfemur -9.7601 0.126786 21.8101
rtibia 29.8835
rfoot -26.0884 -14.3172
rtoes -5.73276
lfemur -37.5167 4.50834 -8.6648
ltibia 52.3382
lfoot -10.6316 6.91522
ltoes -12.2729
1381
root -0.414504 15.3795 7.32185 10.8994 -6.19059 -1.5407
lowerback -0.298906 0.965215 7.19014
upperback -5.24895 1.44784 -0.728124
thorax -5.11668 0.378948 -4.84989
lowerneck -8.31529 4.76357 10.5762
upperneck 28.4482 6.76723 -7.16032
head 11.1695 3.40832 -3.61399
rclavicle 1.09281e-014 -6.36111e-015
rhumerus -16.442 23.2808 -83.1766
rradius 126.38
rwrist -7.92379
rhand -32.8559 7.45616
rfingers 7.12502
rthumb -6.07507 -22.4367
lclavicle 1.09281e-014 -6.36111e-015
lhumerus -38.0382 5.00475 45.9997
lradius 123.533
lwrist -8.48659
lhand -40.6568 12.7287
lfingers 7.12502
lthumb -13.6008 42.2644
rfemur -9.44282 0.247339 21.655
rtibia 29.5996
rfoot -26.0614 -13.9966
rtoes -5.93506
lfemur -37.654 4.27045 -8.2433
ltibia 50.111
lfoot -10.6206 7.46002
ltoes -11.9303
1382
root -0.389429 15.3795 7.39063 10.9339 -6.72352 -1.60133
lowerback -0.283834 0.955266 7.31319
upperback -5.26479 1.43961 -0.713898
thorax -5.14261 0.367905 -4.90457
lowerneck -8.13069 4.89439 10.7333
upperneck 28.4354 6.98435 -7.31492
head 11.1642 3.50922 -3.6735
rclavicle 8.54036e-015 -3.11098e-014
rhumerus -15.4432 24.1312 -83.4431
rradius 126.687
rwrist -7.75167
rhand -32.9768 8.23266
rfingers 7.12502
rthumb -6.19179 -21.6568
lclavicle 8.54036e-015 -3.11098e-014
lhumerus -37.5312 5.02248 46.5097
lradius 123.91
lwrist -8.79089
lhand -40.8914 12.4825
lfingers 7.12502
lthumb -13.827 42.0029
rfemur -9.12348 0.386187 21.4779
rtibia 29.2694
rfoot -26.0005 -13.6706
rtoes -6.15533
lfemur -37.6943 3.95509 -7.76265
ltibia 47.7413
lfoot -10.5508 8.1397
ltoes -11.5618
1383
root -0.361706 15.3809 7.46182 10.9815 -7.30983 -1.66446
lowerback -0.272844 0.946418 7.42865
upperback -5.28353 1.43255 -0.696441
thorax -5.16932 0.357684 -4.95154
lowerneck -7.95053 5.03954 10.9142
upperneck 28.4254 7.22186 -7.48499
head 11.1658 3.62018 -3.74031
rclavicle 2.12956e-014 -3.8763e-015
rhumerus -14.5049 24.9588 -83.7091
rradius 126.95
rwrist -7.63141
rhand -33.0791 8.94423
rfingers 7.12502
rthumb -6.29058 -20.9424
lclavicle 2.12956e-014 -3.8763e-015
lhumerus -37.073 5.01468 47.065
lradius 124.226
lwrist -9.02863
lhand -41.1387 12.1497
lfingers 7.12502
lthumb -14.0653 41.6537
rfemur -8.79518 0.55363 21.2814
rtibia 28.8834
rfoot -25.9065 -13.3349
rtoes -6.37112
lfemur -37.636 3.5527 -7.20738
ltibia 45.255
lfoot -10.367 8.94898
ltoes -11.1051
1384
root -0.33131 15.3841 7.53567 11.0432 -7.95592 -1.71689
lowerback -0.269463 0.940998 7.52443
upperback -5.30452 1.4289 -0.680811
thorax -5.19375 0.349964 -4.9893
lowerneck -7.76907 5.20056 11.1144
upperneck 28.4086 7.48081 -7.66252
head 11.1694 3.74217 -3.81035
rclavicle 7.2339e-015 -1.10325e-014
rhumerus -13.6303 25.7603 -83.973
rradius 127.178
rwrist -7.51805
rhand -33.155 9.5237
rfingers 7.12502
rthumb -6.36385 -20.3607
lclavicle 7.2339e-015 -1.10325e-014
lhumerus -36.6669 4.97458 47.6638
lradius 124.484
lwrist -9.2292
lhand -41.4294 11.7576
lfingers 7.12502
lthumb -14.3454 41.2419
rfemur -8.45963 0.753215 21.0482
rtibia 28.4385
rfoot -25.7816 -12.9871
rtoes -6.6031
lfemur -37.483 3.05135 -6.58393
ltibia 42.6832
lfoot -10.0056 9.88089
ltoes -10.493
1385
root -0.298287 15.3887 7.61183 11.1176 -8.65921 -1.76307
lowerback -0.272428 0.942177 7.60691
upperback -5.32542 1.43282 -0.672417
thorax -5.21333 0.346587 -5.02729
lowerneck -7.58945 5.37641 11.3519
upperneck 28.3788 7.75672 -7.85094
head 11.174 3.87459 -3.88832
rclavicle -1.88434e-014 -4.77083e-015
rhumerus -12.8148 26.5233 -84.2391
rradius 127.365
rwrist -7.33627
rhand -33.2452 9.88081
rfingers 7.12502
rthumb -6.45089 -20.0009
lclavicle -1.88434e-014 -4.77083e-015
lhumerus -36.2823 4.89537 48.2991
lradius 124.675
lwrist -9.44853
lhand -41.6833 11.3784
lfingers 7.12502
lthumb -14.59 40.8452
rfemur -8.11883 0.98452 20.7842
rtibia 27.9362
rfoot -25.6252 -12.6314
rtoes -6.85261
lfemur -37.2464 2.4504 -5.88312
ltibia 40.0701
lfoot -9.40697 10.9191
ltoes -9.72248
1386
root -0.262598 15.3938 7.69043 11.2037 -9.41935 -1.80534
lowerback -0.279615 0.946984 7.67678
upperback -5.35051 1.44092 -0.665781
thorax -5.23443 0.345572 -5.06013
lowerneck -7.38544 5.56037 11.6098
upperneck 28.3277 8.04514 -8.04907
head 11.1702 4.01439 -3.97189
rclavicle -1.10793e-014 1.46107e-014
rhumerus -12.0592 27.2603 -84.4973
rradius 127.519
rwrist -7.08918
rhand -33.3342 10.0117
rfingers 7.12502
rthumb -6.53686 -19.8674
lclavicle -1.10793e-014 1.46107e-014
lhumerus -35.9281 4.78811 48.9621
lradius 124.801
lwrist -9.71359
lhand -41.8021 11.0956
lfingers 7.12502
lthumb -14.7045 40.5541
rfemur -7.77739 1.2438 20.491
rtibia 27.3887
rfoot -25.4442 -12.2734
rtoes -7.15328
lfemur -36.9351 1.75126 -5.10255
ltibia 37.4628
lfoot -8.55053 12.0487
ltoes -8.7848
1387
root -0.224327 15.399 7.77113 11.3043 -10.2301 -1.84828
lowerback -0.294208 0.950346 7.73726
upperback -5.37291 1.44595 -0.660153
thorax -5.2489 0.343743 -5.0884
lowerneck -7.18261 5.7634 11.8941
upperneck 28.2593 8.35831 -8.25658
head 11.1666 4.16719 -4.05975
rclavicle -1.5564e-014 -6.95746e-016
rhumerus -11.3327 27.9763 -84.7375
rradius 127.634
rwrist -6.76852
rhand -33.4402 9.9175
rfingers 7.12502
rthumb -6.63914 -19.9584
lclavicle -1.5564e-014 -6.95746e-016
lhumerus -35.5935 4.66557 49.6372
lradius 124.864
lwrist -10.0303
lhand -41.8688 10.9199
lfingers 7.12502
lthumb -14.7688 40.3737
rfemur -7.44538 1.53284 20.1747
rtibia 26.8102
rfoot -25.2431 -11.9151
rtoes -7.4778
lfemur -36.5707 0.966527 -4.24436
ltibia 34.9147
lfoot -7.46676 13.2491
ltoes -7.66155
1388
root -0.183268 15.4037 7.85368 11.4211 -11.0936 -1.89074
lowerback -0.309583 0.953922 7.78655
upperback -5.40165 1.45102 -0.655256
thorax -5.26975 0.341912 -5.11121
lowerneck -6.96236 5.97657 12.1901
upperneck 28.1735 8.6856 -8.46424
head 11.1573 4.32812 -4.14774
rclavicle -2.84961e-014 -1.93815e-014
rhumerus -10.6452 28.6681 -84.9551
rradius 127.713
rwrist -6.39887
rhand -33.5856 9.74365
rfingers 7.12502
rthumb -6.77951 -20.1278
lclavicle -2.84961e-014 -1.93815e-014
lhumerus -35.269 4.53086 50.3288
lradius 124.848
lwrist -10.4055
lhand -41.8212 10.9156
lfingers 7.12502
lthumb -14.7229 40.3728
rfemur -7.13499 1.84151 19.8305
rtibia 26.216
rfoot -25.029 -11.5466
rtoes -7.83799
lfemur -36.1709 0.109442 -3.32082
ltibia 32.4768
lfoot -6.26031 14.509
ltoes -6.33848
